<svg width="19" height="18" viewBox="0 0 19 18" fill="none" xmlns="http://www.w3.org/2000/svg">
<path d="M17.5025 0H1.4975C1.23355 0.00196251 0.980974 0.107686 0.79433 0.29433C0.607686 0.480974 0.501963 0.733553 0.5 0.9975V17.0025C0.501963 17.2664 0.607686 17.519 0.79433 17.7057C0.980974 17.8923 1.23355 17.998 1.4975 18H10.115V11.04H7.775V8.3175H10.115V6.315C10.115 3.99 11.5325 2.7225 13.6175 2.7225C14.315 2.7225 15.0125 2.7225 15.71 2.8275V5.25H14.2775C13.145 5.25 12.9275 5.79 12.9275 6.5775V8.31H15.6275L15.275 11.0325H12.9275V18H17.5025C17.7664 17.998 18.019 17.8923 18.2057 17.7057C18.3923 17.519 18.498 17.2664 18.5 17.0025V0.9975C18.498 0.733553 18.3923 0.480974 18.2057 0.29433C18.019 0.107686 17.7664 0.00196251 17.5025 0Z" fill="white"/>
</svg>
