<svg width="18" height="18" viewBox="0 0 18 18" fill="none" xmlns="http://www.w3.org/2000/svg">
<path d="M8.97344 5.56248C7.09293 5.56248 5.56173 7.09293 5.56173 8.97344C5.56173 10.8547 7.09293 12.3859 8.97344 12.3859C10.8547 12.3859 12.3852 10.8547 12.3852 8.97344C12.3852 7.09293 10.8547 5.56248 8.97344 5.56248ZM8.97344 5.56248C7.09293 5.56248 5.56173 7.09293 5.56173 8.97344C5.56173 10.8547 7.09293 12.3859 8.97344 12.3859C10.8547 12.3859 12.3852 10.8547 12.3852 8.97344C12.3852 7.09293 10.8547 5.56248 8.97344 5.56248ZM14.6571 0H3.29051C1.47625 0 0 1.47625 0 3.29051V14.6571C0 16.4714 1.47625 17.9476 3.29051 17.9476H14.6571C16.4714 17.9476 17.9476 16.4714 17.9476 14.6571V3.29051C17.9476 1.47625 16.4714 0 14.6571 0ZM8.97344 14.8822C5.71605 14.8822 3.06542 12.2316 3.06542 8.97344C3.06542 5.71605 5.71605 3.06542 8.97344 3.06542C12.2316 3.06542 14.8822 5.71605 14.8822 8.97344C14.8822 12.2316 12.2316 14.8822 8.97344 14.8822ZM15.0719 4.28723C14.301 4.28723 13.674 3.66014 13.674 2.88927C13.674 2.11839 14.301 1.49131 15.0719 1.49131C15.8428 1.49131 16.4699 2.11839 16.4699 2.88927C16.4699 3.66014 15.8428 4.28723 15.0719 4.28723ZM8.97344 5.56248C7.09293 5.56248 5.56173 7.09293 5.56173 8.97344C5.56173 10.8547 7.09293 12.3859 8.97344 12.3859C10.8547 12.3859 12.3852 10.8547 12.3852 8.97344C12.3852 7.09293 10.8547 5.56248 8.97344 5.56248ZM14.6571 0H3.29051C1.47625 0 0 1.47625 0 3.29051V14.6571C0 16.4714 1.47625 17.9476 3.29051 17.9476H14.6571C16.4714 17.9476 17.9476 16.4714 17.9476 14.6571V3.29051C17.9476 1.47625 16.4714 0 14.6571 0ZM8.97344 14.8822C5.71605 14.8822 3.06542 12.2316 3.06542 8.97344C3.06542 5.71605 5.71605 3.06542 8.97344 3.06542C12.2316 3.06542 14.8822 5.71605 14.8822 8.97344C14.8822 12.2316 12.2316 14.8822 8.97344 14.8822ZM15.0719 4.28723C14.301 4.28723 13.674 3.66014 13.674 2.88927C13.674 2.11839 14.301 1.49131 15.0719 1.49131C15.8428 1.49131 16.4699 2.11839 16.4699 2.88927C16.4699 3.66014 15.8428 4.28723 15.0719 4.28723ZM8.97344 5.56248C7.09293 5.56248 5.56173 7.09293 5.56173 8.97344C5.56173 10.8547 7.09293 12.3859 8.97344 12.3859C10.8547 12.3859 12.3852 10.8547 12.3852 8.97344C12.3852 7.09293 10.8547 5.56248 8.97344 5.56248ZM14.6571 0H3.29051C1.47625 0 0 1.47625 0 3.29051V14.6571C0 16.4714 1.47625 17.9476 3.29051 17.9476H14.6571C16.4714 17.9476 17.9476 16.4714 17.9476 14.6571V3.29051C17.9476 1.47625 16.4714 0 14.6571 0ZM8.97344 14.8822C5.71605 14.8822 3.06542 12.2316 3.06542 8.97344C3.06542 5.71605 5.71605 3.06542 8.97344 3.06542C12.2316 3.06542 14.8822 5.71605 14.8822 8.97344C14.8822 12.2316 12.2316 14.8822 8.97344 14.8822ZM15.0719 4.28723C14.301 4.28723 13.674 3.66014 13.674 2.88927C13.674 2.11839 14.301 1.49131 15.0719 1.49131C15.8428 1.49131 16.4699 2.11839 16.4699 2.88927C16.4699 3.66014 15.8428 4.28723 15.0719 4.28723ZM8.97344 5.56248C7.09293 5.56248 5.56173 7.09293 5.56173 8.97344C5.56173 10.8547 7.09293 12.3859 8.97344 12.3859C10.8547 12.3859 12.3852 10.8547 12.3852 8.97344C12.3852 7.09293 10.8547 5.56248 8.97344 5.56248ZM8.97344 5.56248C7.09293 5.56248 5.56173 7.09293 5.56173 8.97344C5.56173 10.8547 7.09293 12.3859 8.97344 12.3859C10.8547 12.3859 12.3852 10.8547 12.3852 8.97344C12.3852 7.09293 10.8547 5.56248 8.97344 5.56248ZM8.97344 5.56248C7.09293 5.56248 5.56173 7.09293 5.56173 8.97344C5.56173 10.8547 7.09293 12.3859 8.97344 12.3859C10.8547 12.3859 12.3852 10.8547 12.3852 8.97344C12.3852 7.09293 10.8547 5.56248 8.97344 5.56248ZM14.6571 0H3.29051C1.47625 0 0 1.47625 0 3.29051V14.6571C0 16.4714 1.47625 17.9476 3.29051 17.9476H14.6571C16.4714 17.9476 17.9476 16.4714 17.9476 14.6571V3.29051C17.9476 1.47625 16.4714 0 14.6571 0ZM8.97344 14.8822C5.71605 14.8822 3.06542 12.2316 3.06542 8.97344C3.06542 5.71605 5.71605 3.06542 8.97344 3.06542C12.2316 3.06542 14.8822 5.71605 14.8822 8.97344C14.8822 12.2316 12.2316 14.8822 8.97344 14.8822ZM15.0719 4.28723C14.301 4.28723 13.674 3.66014 13.674 2.88927C13.674 2.11839 14.301 1.49131 15.0719 1.49131C15.8428 1.49131 16.4699 2.11839 16.4699 2.88927C16.4699 3.66014 15.8428 4.28723 15.0719 4.28723ZM8.97344 5.56248C7.09293 5.56248 5.56173 7.09293 5.56173 8.97344C5.56173 10.8547 7.09293 12.3859 8.97344 12.3859C10.8547 12.3859 12.3852 10.8547 12.3852 8.97344C12.3852 7.09293 10.8547 5.56248 8.97344 5.56248ZM8.97344 5.56248C7.09293 5.56248 5.56173 7.09293 5.56173 8.97344C5.56173 10.8547 7.09293 12.3859 8.97344 12.3859C10.8547 12.3859 12.3852 10.8547 12.3852 8.97344C12.3852 7.09293 10.8547 5.56248 8.97344 5.56248ZM8.97344 5.56248C7.09293 5.56248 5.56173 7.09293 5.56173 8.97344C5.56173 10.8547 7.09293 12.3859 8.97344 12.3859C10.8547 12.3859 12.3852 10.8547 12.3852 8.97344C12.3852 7.09293 10.8547 5.56248 8.97344 5.56248ZM14.6571 0H3.29051C1.47625 0 0 1.47625 0 3.29051V14.6571C0 16.4714 1.47625 17.9476 3.29051 17.9476H14.6571C16.4714 17.9476 17.9476 16.4714 17.9476 14.6571V3.29051C17.9476 1.47625 16.4714 0 14.6571 0ZM8.97344 14.8822C5.71605 14.8822 3.06542 12.2316 3.06542 8.97344C3.06542 5.71605 5.71605 3.06542 8.97344 3.06542C12.2316 3.06542 14.8822 5.71605 14.8822 8.97344C14.8822 12.2316 12.2316 14.8822 8.97344 14.8822ZM15.0719 4.28723C14.301 4.28723 13.674 3.66014 13.674 2.88927C13.674 2.11839 14.301 1.49131 15.0719 1.49131C15.8428 1.49131 16.4699 2.11839 16.4699 2.88927C16.4699 3.66014 15.8428 4.28723 15.0719 4.28723ZM8.97344 5.56248C7.09293 5.56248 5.56173 7.09293 5.56173 8.97344C5.56173 10.8547 7.09293 12.3859 8.97344 12.3859C10.8547 12.3859 12.3852 10.8547 12.3852 8.97344C12.3852 7.09293 10.8547 5.56248 8.97344 5.56248Z" fill="white"/>
</svg>
